<svg xmlns="http://www.w3.org/2000/svg" version="1.1" xmlns:xlink="http://www.w3.org/1999/xlink" xmlns:svgjs="http://svgjs.dev/svgjs" width="1500" height="1500" viewBox="0 0 1500 1500"><rect width="1500" height="1500" fill="#ffffff"></rect><g transform="matrix(0.6666666666666666,0,0,0.6666666666666666,249.3939393939395,635.939424841896)"><svg viewBox="0 0 396 91" data-background-color="#ffffff" preserveAspectRatio="xMidYMid meet" height="344" width="1500" xmlns="http://www.w3.org/2000/svg" xmlns:xlink="http://www.w3.org/1999/xlink"><g id="tight-bounds" transform="matrix(1,0,0,1,0.23999999999995225,-0.24049852011276585)"><svg viewBox="0 0 395.52 91.48081233126597" height="91.48081233126597" width="395.52"><g><svg viewBox="0 0 546.4065676724152 126.37974482658625" height="91.48081233126597" width="395.52"><g transform="matrix(1,0,0,1,150.8865676724152,37.23761249929407)"><svg viewBox="0 0 395.52000000000004 51.904519827998094" height="51.904519827998094" width="395.52000000000004"><g id="textblocktransform"><svg viewBox="0 0 395.52000000000004 51.904519827998094" height="51.904519827998094" width="395.52000000000004" id="textblock"><g><svg viewBox="0 0 395.52000000000004 51.904519827998094" height="51.904519827998094" width="395.52000000000004"><g transform="matrix(1,0,0,1,0,0)"><svg width="395.52000000000004" viewBox="1.54 -39.79 306.57 40.23" height="51.904519827998094" data-palette-color="#010c80"><g class="wordmark-text-0" data-fill-palette-color="primary" id="text-0"><path d="M14.04-8.59L17.94-8.59 17.94 0 1.54 0 1.54-8.59 6.25-8.59 6.25-30.25 1.54-30.25 1.54-38.84 22.49-38.84 30.03-20.14 37.5-38.84 57.03-38.84 57.03-30.25 52.34-30.25 52.34-8.59 57.03-8.59 57.03 0 36.69 0 36.69-8.59 39.84-8.59 39.84-23.1 31.25 0 24.19 0 14.04-23.66 14.04-8.59ZM74.51 0.44L74.51 0.44Q70.07 0.44 66.77-1.2L66.77-1.2Q63.43-2.81 61.57-5.93 59.71-9.06 59.71-13.35L59.71-13.35Q59.71-17.63 61.57-20.61L61.57-20.61Q63.43-23.61 66.77-25.13 70.11-26.66 74.51-26.66L74.51-26.66Q79.03-26.66 82.36-25.1 85.69-23.54 87.52-20.57 89.35-17.6 89.35-13.35L89.35-13.35Q89.35-9.06 87.52-5.93L87.52-5.93Q85.67-2.81 82.31-1.18 78.95 0.44 74.51 0.44ZM74.51-6.69L74.51-6.69Q76.12-6.69 76.9-8.28L76.9-8.28Q77.66-9.81 77.66-13.35L77.66-13.35Q77.66-16.6 76.91-18.05 76.17-19.51 74.51-19.51L74.51-19.51Q72.92-19.51 72.17-18.05 71.41-16.6 71.41-13.35L71.41-13.35Q71.41-9.89 72.19-8.28L72.19-8.28Q72.97-6.69 74.51-6.69ZM114.67 0.44L114.67 0.44Q112.42 0.44 110.6-0.5 108.78-1.44 107.51-2.81L107.51-2.81 106.59 0 95.62 0 95.62-29.86 92.48-29.86 92.48-36.5 107.32-38.11 107.32-23.56Q109.22-25.1 111.27-25.88 113.33-26.66 115.18-26.66L115.18-26.66Q118.65-26.66 121.16-24.85L121.16-24.85Q123.63-23.05 124.85-19.97 126.07-16.89 126.07-13.16L126.07-13.16Q126.07-9.23 124.8-6.18L124.8-6.18Q123.53-3.1 120.95-1.33 118.38 0.44 114.67 0.44ZM111.13-6.69L111.13-6.69Q112.89-6.69 114.03-8.42 115.18-10.16 115.18-12.45L115.18-12.45Q115.18-15.31 114.18-17.41 113.18-19.51 111.13-19.51L111.13-19.51Q109.98-19.51 108.88-19.01 107.78-18.51 107.32-17.9L107.32-17.9 107.32-7.91Q107.88-7.45 108.98-7.07 110.08-6.69 111.13-6.69ZM138.93-28.71L138.93-28.71Q135.88-28.71 133.9-30.15 131.93-31.59 131.93-34.3L131.93-34.3Q131.93-37.01 133.9-38.4 135.88-39.79 138.98-39.79L138.98-39.79Q142.08-39.79 144.02-38.43 145.96-37.06 145.96-34.3L145.96-34.3Q145.96-31.59 143.97-30.15 141.98-28.71 138.93-28.71ZM144.77-7.35L147.92-7.35 147.92 0 129.92 0 129.92-7.35 133.07-7.35 133.07-18.6 129.92-18.6 129.92-24.61 144.77-26.15 144.77-7.35ZM150.38-20.41L167.13-20.41 167.13-13.11 150.38-13.11 150.38-20.41ZM187.51 0L187.51 0 169.57 0 169.57-8.59 173.47-8.59 173.47-30.25 169.57-30.25 169.57-38.84 187.56-38.84Q198.16-38.84 203.78-33.95 209.41-29.05 209.41-19.46L209.41-19.46Q209.41-10.11 203.82-5.05 198.23 0 187.51 0ZM187.51-30.25L185.97-30.25 185.97-8.59 187.51-8.59Q190.25-8.59 191.98-10 193.71-11.4 194.54-13.87 195.37-16.33 195.37-19.46L195.37-19.46Q195.37-24.24 193.52-27.25 191.66-30.25 187.51-30.25L187.51-30.25ZM228.45 0.44L228.45 0.44Q223.91 0.44 220.57-1.25L220.57-1.25Q217.2-2.91 215.4-6.01 213.61-9.11 213.61-13.26L213.61-13.26Q213.61-17.36 215.37-20.39L215.37-20.39Q217.1-23.39 220.27-25.02 223.45-26.66 227.72-26.66L227.72-26.66Q231.65-26.66 234.65-25.12L234.65-25.12Q237.66-23.56 239.3-20.7 240.95-17.85 240.95-14.04L240.95-14.04Q240.95-12.72 240.56-11.55L240.56-11.55 225.35-11.55Q225.35-9.25 227.08-7.87 228.82-6.49 231.26-6.49L231.26-6.49Q233.11-6.49 235.34-7.14 237.56-7.79 239.8-9.16L239.8-9.16 240.22-9.01 240.22-2.44Q237.7-1 235.06-0.28 232.41 0.44 228.45 0.44ZM225.35-16.55L225.35-16.55 225.35-15.84 231.6-15.84 231.6-16.36Q231.6-18.09 230.81-19.35 230.01-20.61 228.45-20.61L228.45-20.61Q227.16-20.61 226.25-19.32 225.35-18.04 225.35-16.55ZM258.94 0.44L258.94 0.44Q253.94 0.44 250.08-2.2L250.08-2.2 249.27 0 244.73 0 244.73-9.64 250.18-9.64Q250.5-7.79 251.91-6.32 253.33-4.86 255.18-4.86L255.18-4.86Q255.89-4.86 256.42-5.25 256.94-5.64 256.94-6.54L256.94-6.54Q256.94-7.45 255.92-8.18L255.92-8.18Q254.87-8.94 252.79-9.91L252.79-9.91Q250.28-11.16 248.69-12.18L248.69-12.18Q247.08-13.21 245.91-14.88 244.73-16.55 244.73-18.9L244.73-18.9Q244.73-21.31 246.32-23.1L246.32-23.1Q247.91-24.85 250.5-25.76 253.08-26.66 256.13-26.66L256.13-26.66Q260.11-26.66 263.53-24.56L263.53-24.56 264.14-26.15 268.2-26.15 268.2-18.36 263.48-18.36Q262.87-19.95 261.73-20.85 260.58-21.75 259.04-21.75L259.04-21.75Q257.23-21.75 257.23-20.61L257.23-20.61Q257.26-19.82 258.19-19.26L258.19-19.26Q259.11-18.73 261.19-17.8L261.19-17.8Q262.48-17.26 263.56-16.72 264.63-16.19 265.49-15.7L265.49-15.7Q267.19-14.7 268.46-12.88 269.73-11.06 269.73-8.35L269.73-8.35Q269.73-5.47 268.24-3.52L268.24-3.52Q266.75-1.54 264.29-0.55 261.82 0.44 258.94 0.44ZM307.33-18.6L303.42-18.6 299.22-15.09 304.28-7.35 308.11-7.35 308.11 0 296.46 0 289.31-10.69 289.31 0 273.32 0 273.32-7.35 277.62-7.35 277.62-29.86 273.32-29.86 273.32-36.5 289.31-38.11 289.31-14.36 294.41-18.6 291.73-18.6 291.73-26.15 307.33-26.15 307.33-18.6Z" fill="#010c80" data-fill-palette-color="primary"></path></g></svg></g></svg></g></svg></g></svg></g><g><svg viewBox="0 0 126.37974482658625 126.37974482658625" height="126.37974482658625" width="126.37974482658625"><g><svg></svg></g><g id="icon-0"><svg viewBox="0 0 126.37974482658625 126.37974482658625" height="126.37974482658625" width="126.37974482658625"><g><path d="M0 63.19c0-34.899 28.291-63.19 63.19-63.19 34.899 0 63.19 28.291 63.19 63.19 0 34.899-28.291 63.19-63.19 63.19-34.899 0-63.19-28.291-63.19-63.19zM63.19 121.699c32.314 0 58.509-26.195 58.509-58.509 0-32.314-26.195-58.509-58.509-58.509-32.314 0-58.509 26.195-58.509 58.509 0 32.314 26.195 58.509 58.509 58.509z" data-fill-palette-color="accent" fill="#010c80" stroke="transparent"></path></g><g transform="matrix(1,0,0,1,26.622009552838136,36.364419576120554)"><svg viewBox="0 0 73.13572572090997 53.65090567434514" height="53.65090567434514" width="73.13572572090997"><g><svg version="1.1" xmlns="http://www.w3.org/2000/svg" xmlns:xlink="http://www.w3.org/1999/xlink" x="0" y="0" viewBox="0 0 100 73.358" enable-background="new 0 0 100 73.359" xml:space="preserve" id="dxe-0" width="73.13572572090997" height="53.65090567434514" class="icon-dxe-0" data-fill-palette-color="accent"><path fill="#010c80" d="M94.906 0H5.094C2.282 0 0 2.353 0 5.248V57.325H100V5.248C100 2.353 97.718 0 94.906 0M48.292 1.583H51.708V4.998H48.292zM93.614 52H6.387V6.637H93.615z" data-fill-palette-color="accent"></path><path fill="#010c80" d="M99.994 61.086H0.012C0.012 61.107 0.006 61.137 0.006 61.16 0.006 65.698 3.692 73.358 8.232 73.358H91.774C96.32 73.358 99.999 65.697 99.999 61.16 100 61.137 99.994 61.11 99.994 61.086M60.12 69.069H39.875A1.55 1.55 0 0 1 38.323 67.516 1.55 1.55 0 0 1 39.875 65.96H60.12C60.98 65.96 61.682 66.652 61.682 67.516A1.556 1.556 0 0 1 60.12 69.069M89.219 69.666A2.104 2.104 0 1 1 89.219 65.458 2.104 2.104 0 0 1 89.219 69.666" data-fill-palette-color="accent"></path></svg></g></svg></g></svg></g></svg></g></svg></g><defs></defs></svg><rect width="395.52" height="91.48081233126597" fill="none" stroke="none" visibility="hidden"></rect></g></svg></g></svg>